<svg width="28" height="28" viewBox="0 0 28 28" fill="none" xmlns="http://www.w3.org/2000/svg">
<path d="M14.0735 8.01562C9.64013 8.01562 5.72013 10.2401 3.2779 13.6623C3.15346 13.8334 3.15346 14.0667 3.2779 14.2378C5.72013 17.6601 9.64013 19.8845 14.0735 19.8845C18.5068 19.8845 22.4268 17.6601 24.869 14.2378C24.9935 14.0667 24.9935 13.8334 24.869 13.6623C22.4268 10.2401 18.5068 8.01562 14.0735 8.01562ZM14.0735 9.01118C17.869 9.01118 21.2446 10.7845 23.5157 13.569C23.7024 13.8023 23.7024 14.129 23.5157 14.3623C21.229 17.1467 17.8535 18.9201 14.0735 18.9201C10.2935 18.9201 6.90235 17.1467 4.63124 14.3623C4.44457 14.129 4.44457 13.8023 4.63124 13.569C6.90235 10.7845 10.2935 9.01118 14.0735 9.01118ZM14.6335 10.5356C12.3001 10.1779 10.2935 12.169 10.6668 14.5023C10.9001 15.9645 12.0668 17.1467 13.5446 17.3801C15.8779 17.7379 17.8846 15.7467 17.5112 13.4134C17.2779 11.9512 16.0957 10.769 14.6335 10.5356ZM13.9179 11.4845C15.4112 11.3912 16.6401 12.6201 16.5468 14.1134C16.469 15.3423 15.4579 16.3534 14.229 16.4312C12.7357 16.5245 11.5068 15.2956 11.6001 13.8023C11.6779 12.5734 12.689 11.5623 13.9179 11.4845Z" fill="#8F90A6"/>
<path d="M14.0734 20.1324C9.76451 20.1324 5.65784 17.9857 3.09117 14.3768C2.90451 14.1279 2.90451 13.7857 3.09117 13.5213C5.65784 9.92792 9.76451 7.78125 14.0734 7.78125C18.3978 7.78125 22.5045 9.92792 25.0556 13.5213C25.2423 13.7701 25.2423 14.1124 25.0556 14.3768C22.5045 17.9857 18.3978 20.1324 14.0734 20.1324ZM14.0734 8.24792C9.90451 8.24792 5.93784 10.3168 3.4645 13.8013C3.40228 13.8946 3.40228 14.019 3.4645 14.1124C5.93784 17.5968 9.90451 19.6657 14.0734 19.6657C18.2423 19.6657 22.1934 17.5968 24.6823 14.1124C24.7445 14.019 24.7445 13.8946 24.6823 13.8013C22.2089 10.3324 18.2423 8.24792 14.0734 8.24792ZM14.0734 19.1368C10.3712 19.1368 6.85561 17.4413 4.4445 14.5013C4.18006 14.1902 4.18006 13.7235 4.4445 13.4124C6.85561 10.4568 10.3712 8.77681 14.0734 8.77681C17.7756 8.77681 21.2912 10.4724 23.7023 13.4124C23.9667 13.7235 23.9667 14.1902 23.7023 14.5013C21.2912 17.4568 17.7756 19.1368 14.0734 19.1368ZM14.0734 9.24348C10.5112 9.24348 7.13562 10.8768 4.80228 13.7079C4.67784 13.8479 4.67784 14.0657 4.80228 14.2057C7.13562 17.0524 10.5112 18.6701 14.0734 18.6701C17.6356 18.6701 21.0112 17.0368 23.3445 14.2057C23.4689 14.0657 23.4689 13.8479 23.3445 13.7079C21.0112 10.8768 17.6356 9.24348 14.0734 9.24348ZM14.0734 17.659C13.8712 17.659 13.6845 17.6435 13.4823 17.6124C11.9267 17.3635 10.6512 16.1035 10.4178 14.5479C10.2312 13.3657 10.6045 12.199 11.4601 11.3435C12.3001 10.5035 13.4667 10.1146 14.6645 10.3013C16.2201 10.5502 17.4956 11.8101 17.729 13.3657C17.9156 14.5479 17.5423 15.7146 16.6867 16.5701C15.9867 17.2701 15.0534 17.659 14.0734 17.659ZM14.0734 10.7213C13.2178 10.7213 12.4089 11.0479 11.7867 11.6701C11.0556 12.4013 10.7134 13.4279 10.8845 14.4701C11.1023 15.839 12.1912 16.9279 13.5601 17.1457C14.6023 17.3013 15.6134 16.9746 16.3601 16.2435C17.1067 15.5124 17.4334 14.4857 17.2623 13.4435C17.0445 12.0746 15.9556 10.9857 14.5867 10.7679C14.4156 10.7368 14.2445 10.7213 14.0734 10.7213ZM14.0734 16.6635C13.3578 16.6635 12.6578 16.3835 12.1601 15.8701C11.6156 15.3257 11.3201 14.5635 11.3667 13.7857C11.4445 12.4479 12.5645 11.3435 13.9023 11.2501L13.9178 11.4835L13.9023 11.2501C14.6801 11.2035 15.4423 11.4835 15.9867 12.0435C16.5312 12.6035 16.8267 13.3501 16.7801 14.1279C16.7023 15.4657 15.5823 16.5701 14.2445 16.6635C14.1978 16.6635 14.1356 16.6635 14.0734 16.6635ZM13.9334 11.7168C12.8289 11.779 11.9112 12.6968 11.8334 13.8168C11.7867 14.4701 12.0356 15.0924 12.4867 15.5435C12.9378 15.9946 13.5756 16.2279 14.2134 16.1968C15.3178 16.1346 16.2356 15.2168 16.3134 14.0968C16.3601 13.4435 16.1112 12.8212 15.6601 12.3701C15.2089 11.919 14.5867 11.6857 13.9334 11.7168Z" fill="#8F90A6"/>
</svg>
