<svg width="28" height="28" viewBox="0 0 28 28" fill="none" xmlns="http://www.w3.org/2000/svg">
<path d="M13.9221 8.0625C9.48876 8.0625 5.56876 10.287 3.12654 13.7092C3.00209 13.8803 3.00209 14.1136 3.12654 14.2847C5.56876 17.7069 9.48876 19.9314 13.9221 19.9314C18.3554 19.9314 22.2754 17.7069 24.7176 14.2847C24.8421 14.1136 24.8421 13.8803 24.7176 13.7092C22.2754 10.2714 18.3399 8.0625 13.9221 8.0625ZM13.9221 9.04251C17.7176 9.04251 21.0932 10.8158 23.3643 13.6003C23.551 13.8336 23.551 14.1603 23.3643 14.3936C21.0776 17.1781 17.7021 18.9514 13.9221 18.9514C10.1421 18.9514 6.75098 17.1781 4.47987 14.3936C4.2932 14.1603 4.2932 13.8336 4.47987 13.6003C6.75098 10.8158 10.1265 9.04251 13.9221 9.04251ZM14.4665 10.5669C12.1332 10.2092 10.1265 12.2003 10.4999 14.5336C10.7332 15.9958 11.8999 17.1781 13.3776 17.4114C15.711 17.7692 17.7176 15.7781 17.3443 13.4447C17.111 11.9825 15.9288 10.8003 14.4665 10.5669ZM13.751 11.5314C15.2443 11.4381 16.4732 12.667 16.3799 14.1603C16.3021 15.3892 15.291 16.4003 14.0621 16.4781C12.5688 16.5714 11.3399 15.3425 11.4332 13.8492C11.5265 12.6047 12.5221 11.5936 13.751 11.5314Z" fill="#8F90A6"/>
<path d="M13.922 20.1636C9.61314 20.1636 5.50647 18.0169 2.9398 14.4081C2.75314 14.1592 2.75314 13.8169 2.9398 13.5525C5.50647 9.95917 9.61314 7.8125 13.922 7.8125C18.2465 7.8125 22.3531 9.95917 24.9043 13.5525C25.0909 13.8014 25.0909 14.1436 24.9043 14.4081C22.3376 18.0169 18.2309 20.1636 13.922 20.1636ZM13.922 8.29472C9.75314 8.29472 5.78647 10.3636 3.31314 13.8481C3.25091 13.9414 3.25091 14.0658 3.31314 14.1592C5.78647 17.6436 9.75314 19.7125 13.922 19.7125C18.0909 19.7125 22.042 17.6436 24.5309 14.1592C24.5931 14.0658 24.5931 13.9414 24.5309 13.8481C22.042 10.3636 18.0909 8.29472 13.922 8.29472ZM13.922 19.1836C10.2198 19.1836 6.70425 17.4881 4.29314 14.5481C4.0287 14.237 4.0287 13.7703 4.29314 13.4592C6.70425 10.5036 10.2198 8.82361 13.922 8.82361C17.6243 8.82361 21.1398 10.5192 23.5509 13.4592C23.8154 13.7703 23.8154 14.237 23.5509 14.5481C21.1242 17.4881 17.6243 19.1836 13.922 19.1836ZM13.922 9.27473C10.3598 9.27473 6.98425 10.9081 4.65092 13.7392C4.52647 13.8792 4.52647 14.097 4.65092 14.237C6.98425 17.0836 10.3598 18.7014 13.922 18.7014C17.4843 18.7014 20.8598 17.0681 23.1931 14.237C23.3176 14.097 23.3176 13.8792 23.1931 13.7392C20.8598 10.9081 17.4843 9.27473 13.922 9.27473ZM13.922 17.6903C13.7198 17.6903 13.5331 17.6747 13.3309 17.6436C11.7754 17.3947 10.4998 16.1347 10.2665 14.5792C10.0798 13.3969 10.4687 12.2303 11.3087 11.3747C12.1487 10.5347 13.3154 10.1458 14.5131 10.3325C16.0687 10.5814 17.3443 11.8414 17.5776 13.3969C17.7643 14.5792 17.3909 15.7458 16.5354 16.6014C15.8198 17.3169 14.902 17.6903 13.922 17.6903ZM13.922 10.7681C13.0665 10.7681 12.2576 11.0947 11.6354 11.7169C10.8887 12.4481 10.562 13.4747 10.7331 14.5169C10.9509 15.8858 12.0398 16.9747 13.4087 17.1925C14.4509 17.3481 15.462 17.0214 16.2087 16.2903C16.9398 15.5592 17.282 14.5325 17.1109 13.4903C16.8931 12.1214 15.8042 11.0325 14.4354 10.8147C14.2642 10.7836 14.0931 10.7681 13.922 10.7681ZM13.922 16.6947C13.2065 16.6947 12.5065 16.4147 12.0087 15.9014C11.4643 15.3569 11.1687 14.5947 11.2154 13.8169C11.2931 12.4792 12.4131 11.3747 13.7509 11.2814C14.5287 11.2347 15.2909 11.5147 15.8354 12.0747C16.3798 12.6192 16.6754 13.3814 16.6287 14.1592C16.5509 15.497 15.4309 16.6014 14.0931 16.6947C14.0309 16.6947 13.9687 16.6947 13.922 16.6947ZM13.7665 11.7636C12.662 11.8258 11.7443 12.7436 11.6665 13.8636C11.6198 14.5169 11.8687 15.1392 12.3198 15.5903C12.7709 16.0414 13.4087 16.2747 14.0465 16.2436C15.1509 16.1814 16.0687 15.2636 16.1465 14.1436C16.1931 13.4903 15.9443 12.8681 15.4931 12.4169C15.0576 11.9503 14.4198 11.7169 13.7665 11.7636Z" fill="#8F90A6"/>
<path d="M22.6329 23.8806C22.3217 23.8806 22.0262 23.7561 21.8084 23.5383L4.38618 6.11611C3.93507 5.665 3.93507 4.91833 4.38618 4.46721C4.60396 4.24944 4.89952 4.125 5.21063 4.125C5.52174 4.125 5.81729 4.24944 6.03507 4.46721L23.4573 21.8894C23.9084 22.3405 23.9084 23.0872 23.4573 23.5383C23.2395 23.7561 22.944 23.8806 22.6329 23.8806Z" fill="#8F90A6"/>
<path d="M5.21081 4.51215C5.41303 4.51215 5.61526 4.58993 5.75526 4.74549L23.1775 22.1677C23.4886 22.4788 23.4886 22.961 23.1775 23.2721C23.0219 23.4277 22.8197 23.5055 22.633 23.5055C22.4308 23.5055 22.2286 23.4277 22.0886 23.2721L4.66637 5.84993C4.35526 5.53882 4.35526 5.0566 4.66637 4.74549C4.80637 4.58993 5.00859 4.51215 5.21081 4.51215ZM5.21081 3.73438C4.79081 3.73438 4.40192 3.88992 4.10637 4.18548C3.4997 4.79215 3.4997 5.77215 4.10637 6.37882L21.5286 23.801C21.8241 24.0966 22.213 24.2521 22.633 24.2521C23.053 24.2521 23.4419 24.0966 23.7375 23.801C24.3441 23.1944 24.3441 22.2144 23.7375 21.6077L6.31526 4.18548C6.00415 3.88992 5.61526 3.73438 5.21081 3.73438Z" fill="#F0F0F3"/>
</svg>
